<?xml version="1.0" encoding="UTF-8" standalone="no"?>
<svg width="13px" height="13px" viewBox="0 0 13 13" version="1.1" xmlns="http://www.w3.org/2000/svg" xmlns:xlink="http://www.w3.org/1999/xlink" xmlns:sketch="http://www.bohemiancoding.com/sketch/ns">
    <!-- Generator: Sketch 3.5.1 (25234) - http://www.bohemiancoding.com/sketch -->
    <title>Shape</title>
    <desc>Created with Sketch.</desc>
    <defs></defs>
    <g id="Page-1" stroke="none" stroke-width="1" fill="none" fill-rule="evenodd" sketch:type="MSPage">
        <g id="key" sketch:type="MSLayerGroup" fill="#828282">
            <g id="Layer_1" sketch:type="MSShapeGroup">
                <path d="M11.8611543,1.18145984 C10.350209,-0.36488755 7.9150957,-0.377600402 6.42215234,1.16321285 C5.4158457,2.19358032 5.09559375,3.66237149 5.45060547,4.98583936 L0,10.5895181 L0.0084296875,12.5118474 C0.0101054688,12.8591667 0.134087891,12.9779157 0.468787109,12.9853815 L2.73644922,12.9849639 L2.73670313,11.618998 L4.06519141,11.6186586 L4.06544531,10.2713052 L5.34132422,10.271488 L5.34094336,8.90492169 L7.07766211,8.90492169 L8.17400391,7.77778514 C9.45973437,8.13964458 10.8848086,7.81038956 11.8878652,6.78250201 C13.381291,5.24241968 13.3689258,2.73851004 11.8611543,1.18145984 L11.8611543,1.18145984 Z M11.0551797,3.4863494 C10.6580703,3.88668675 10.0112187,3.88256225 9.61068164,3.47697791 C9.21052539,3.05938554 9.20666602,2.3943494 9.60199805,1.99228916 C10.000123,1.57916064 10.6465684,1.58297189 11.0459629,2.00153012 C11.4472109,2.40633133 11.4511973,3.0715502 11.0551797,3.4863494 L11.0551797,3.4863494 Z" id="Shape"></path>
            </g>
        </g>
    </g>
</svg>